<svg xmlns="http://www.w3.org/2000/svg" shape-rendering="geometricPrecision" text-rendering="geometricPrecision" image-rendering="optimizeQuality" fill-rule="evenodd" clip-rule="evenodd" viewBox="0 0 487 511.547"><path fill-rule="nonzero" fill="white" d="M327.914 261.518l16.775 217.207.103 2.212c0 8.333-3.549 15.808-9.137 21.307-5.256 5.173-12.427 8.581-20.099 9.187a29.51 29.51 0 01-2.461.116H173.907c-.695 0-1.514-.036-2.461-.11l-.515-.05c-7.472-.71-14.444-4.082-19.584-9.137-5.588-5.499-9.138-12.965-9.138-21.31l.104-2.215 16.751-216.92-72.373 25.32c-21.439 8.191-41.693 8.223-56.79 2.842-8.711-3.103-15.967-8.039-21.161-14.375-5.688-6.934-8.827-15.311-8.738-24.646.103-11.311 5.017-23.602 16.068-35.605 60.458-61.905 119.153-126.98 180.208-188.036l-.029-.029C214.431 9.093 228.174 0 243.901 0c15.728 0 29.471 9.09 47.65 27.276l.968 1.059 178.966 186.76 1.009 1.157c10.083 11.556 14.529 23.445 14.506 34.422v.13c-.062 9.35-3.227 17.733-8.862 24.61-5.23 6.381-12.56 11.389-21.41 14.527-14.82 5.256-34.508 5.247-55.616-2.819l-73.198-25.604zM313.506 481.05l-.003-.03a.564.564 0 00.003.03zm-.066-.855l-18.448-238.892a15.884 15.884 0 01-.128-2c0-8.643 7.011-15.653 15.654-15.653h1.145v.047c1.703 0 3.437.281 5.135.873l95.191 33.309c13.757 5.313 25.823 5.618 34.345 2.595 3.345-1.187 5.948-2.867 7.59-4.872 1.207-1.473 1.887-3.162 1.893-4.928v-.062c.014-3.713-2.05-8.386-6.724-13.764L269.979 49.937l-.559-.53c-12.063-12.066-19.792-18.099-25.519-18.099-5.726 0-13.455 6.033-25.521 18.099l-.024-.023L39.059 236.496c-5.434 5.901-7.839 10.871-7.874 14.692-.015 1.722.576 3.29 1.644 4.591 1.565 1.908 4.127 3.532 7.466 4.721 8.785 3.13 21.286 2.834 35.321-2.544l94.153-32.954a15.555 15.555 0 016.368-1.352l1.509.062c8.611.642 15.071 8.143 14.429 16.754l-18.514 239.729.328.059c-.012-.006-.059-.015.018-.015h139.188c.074 0 .029.009 0 .012l.345-.056zm-.345.056c-.021.003-.033.006 0 0zm-139.188 0c.032.006.021.003 0 0z"/></svg>